<svg xmlns="http://www.w3.org/2000/svg" width="500" height="500" viewBox="0 0 500 500"><defs><style>.a{fill:#33bbbe;}.b{opacity:0.25;}.c{fill:#fff;}</style></defs><circle class="a" cx="250" cy="250" r="250"/><path class="b" d="M375.05,273.59l-.03-.05c-9.93-9.84-22.4-15.81-37.2-17.81l28.6-28.59a68.0334,68.0334,0,0,0,21.47-48.59c.55-18.9-5.29-35.68-17.36-49.87-14.24-17.39-32.72-26.2-54.96-26.2H175.86c-19.51,0-36.09,6.19-49.24,18.35-13.42,12.28-20.21,28.74-20.21,48.92v10.69c0,16.85,6.52,31.51,19.4,43.58,10.1,9.44,21.5,15.21,34,17.24L129.1,273.02c-10.5,10.95-17.16,23.61-19.8,37.61a78.2449,78.2449,0,0,0,2.81,40.45,68.99,68.99,0,0,0,23.88,33.07c11.46,8.87,26.05,13.37,43.39,13.37H320.54c22.79,0,40.86-6.37,53.7-18.93,12.85-12.58,19.35-28.87,19.35-48.42v-7.82C393.59,302.39,387.36,285.98,375.05,273.59Zm-5.48,56.58c0,13.53-3.87,23.88-11.87,31.67-7.87,7.73-20.37,11.66-37.16,11.66H179.38c-12.06,0-21.97-2.84-29.49-8.46a43.49,43.49,0,0,1-16.05-21.83,53.4285,53.4285,0,0,1-1.82-28.31c1.83-9.6,6.34-17.92,13.84-25.49l49.75-51.06.19-.2a12.8552,12.8552,0,0,0,3.39-8.79c0-5.59-3.7-11.23-11.98-11.23H170.16a39.7806,39.7806,0,0,1-28.12-11.08,34.5159,34.5159,0,0,1-11.69-26.61V169.75c0-13.45,4.08-23.76,12.48-31.53,8.48-7.92,19.28-11.77,33.03-11.77H315.57c14.68,0,26.42,5.76,35.87,17.63l.34.4a44.7949,44.7949,0,0,1,12.16,32.84c-.41,12.81-5.03,23.66-14.1,33.18L303.7,256.73c-1.35.11-2.81.22-4.36.36-18.31,1.49-42.6,9.41-46.48,11.31l-.13.07c-.27.14-.56.3-.85.46-.11.07-.21.13-.29.17l-.15.08a12.2312,12.2312,0,0,0-6.94,8.64,10.0921,10.0921,0,0,0-.29,2.59,11.01,11.01,0,0,0,8,10.92c2.29.69,20.18-6.46,34.42-8.39,4.83-.65,9.82-1.33,12.66-1.58l.25-.03c3.73-.45,7.67-.77,11.17-1.02.88-.08,2.05-.21,3.37-.33,3.84-.38,9.62-.96,12.17-.96,14.07,0,24.56,3.75,32.07,11.45,7.57,7.77,11.25,18.21,11.25,31.88Z"/><path class="c" d="M369.57,322.35v7.82c0,13.53-3.87,23.88-11.87,31.67-7.87,7.73-20.37,11.66-37.16,11.66H179.38c-12.06,0-21.97-2.84-29.49-8.46a43.49,43.49,0,0,1-16.05-21.83,53.4285,53.4285,0,0,1-1.82-28.31c1.83-9.6,6.34-17.92,13.84-25.49l49.75-51.06.19-.2a12.8552,12.8552,0,0,0,3.39-8.79c0-5.59-3.7-11.23-11.98-11.23H170.16a39.7806,39.7806,0,0,1-28.12-11.08,34.5159,34.5159,0,0,1-11.69-26.61V169.75c0-13.45,4.08-23.76,12.48-31.53,8.48-7.92,19.28-11.77,33.03-11.77H315.57c14.68,0,26.42,5.76,35.87,17.63l.34.4a44.7949,44.7949,0,0,1,12.16,32.84c-.41,12.81-5.03,23.66-14.1,33.18L303.7,256.73c-1.35.11-2.81.22-4.36.36-18.31,1.49-42.6,9.41-46.48,11.31l-.13.07c-.27.14-.56.3-.85.46-.11.07-.21.13-.29.17l-.15.08a12.2312,12.2312,0,0,0-6.94,8.64,10.0921,10.0921,0,0,0-.29,2.59,11.01,11.01,0,0,0,8,10.92c2.29.69,20.18-6.46,34.42-8.39,4.83-.65,9.82-1.33,12.66-1.58l.25-.03c3.73-.45,7.67-.77,11.17-1.02.88-.08,2.05-.21,3.37-.33,3.84-.38,9.62-.96,12.17-.96,14.07,0,24.56,3.75,32.07,11.45C365.89,298.24,369.57,308.68,369.57,322.35Z"/></svg>